# File created by Blade
# Date/Time:  Tue Sep 23 19:06:47 2014
# Frame Rate: 120.000 fps
#------------------------------------------------------
:FULLY-SPECIFIED
:DEGREES
940
root 1.659494 32.685094 0.608026 39.949748 -4.753510 -5.490856
Spine -18.944490 -3.098331 5.451459
Head 34.678862 -11.764530 0.061867
LeftShoulder -15.840218 49.620895 18.488274
LeftArm 54.908204 8.119193 -75.665215
LeftForeArm 86.885505 -0.000000 3.663397
LeftHand -14.317243 0.000000 62.499669
LeftHandThumb1 -26.253704 0.000000 33.147579
RightShoulder -15.389074 -52.101586 -10.180391
RightArm 51.188028 14.034499 91.447121
RightForeArm 20.619246 0.000000 36.552785
RightHand 10.505830 -0.000000 -22.423617
RightHandThumb1 -24.326973 -0.000000 -32.862282
LeftUpLeg -43.675834 4.859697 3.464484
LeftLeg 15.432031 -0.000000 -0.000000
LeftFoot -8.593166 9.306345 1.835583
LeftToeBase -1.768034 -0.000000 0.000000
RightUpLeg -52.680238 -1.454430 1.268305
RightLeg 25.062897 -0.000000 -0.000000
RightFoot -5.119852 -7.924433 4.181985
RightToeBase 6.499466 -0.000000 -0.000000
941
root 1.671790 32.685052 0.557389 39.940178 -4.694148 -5.444247
Spine -18.969803 -3.194471 5.459946
Head 34.776232 -11.608020 -0.064257
LeftShoulder -15.888553 49.561347 18.494983
LeftArm 54.960101 7.569030 -75.568227
LeftForeArm 87.264401 -0.000000 4.104732
LeftHand -14.908213 -0.000000 62.716862
LeftHandThumb1 -26.253704 0.000000 33.147579
RightShoulder -15.478177 -52.192977 -10.139748
RightArm 51.127395 14.082449 91.491514
RightForeArm 20.355314 -0.000000 36.591903
RightHand 10.359917 -0.000000 -22.455492
RightHandThumb1 -24.326973 -0.000000 -32.862282
LeftUpLeg -43.697960 4.897438 3.363400
LeftLeg 15.255516 -0.000000 -0.000000
LeftFoot -8.555641 9.141559 1.846323
LeftToeBase -1.449931 -0.000000 0.000000
RightUpLeg -52.576803 -1.285236 1.327723
RightLeg 25.297142 -0.000000 -0.000000
RightFoot -5.671294 -7.641686 4.434978
RightToeBase 6.372660 -0.000000 -0.000000
942
root 1.686001 32.682281 0.508450 39.919656 -4.641029 -5.354567
Spine -18.995575 -3.312294 5.450181
Head 34.851357 -11.485652 -0.222570
LeftShoulder -15.921879 49.513858 18.489750
LeftArm 54.930430 6.972607 -75.546012
LeftForeArm 87.468661 -0.000000 4.733207
LeftHand -15.238415 -0.000000 62.922143
LeftHandThumb1 -26.253704 0.000000 33.147579
RightShoulder -15.538189 -52.273763 -10.142972
RightArm 51.062389 14.136098 91.576944
RightForeArm 20.184910 -0.000000 36.660757
RightHand 10.209138 -0.000000 -22.419661
RightHandThumb1 -24.326973 -0.000000 -32.862282
LeftUpLeg -43.695590 4.869858 3.247434
LeftLeg 15.053089 -0.000000 -0.000000
LeftFoot -8.454985 9.028288 1.930902
LeftToeBase -1.368942 -0.000000 0.000000
RightUpLeg -52.451006 -1.136389 1.313627
RightLeg 25.479972 -0.000000 -0.000000
RightFoot -6.293808 -7.355008 4.766227
RightToeBase 6.435488 -0.000000 -0.000000
943
root 1.696255 32.680161 0.459357 39.939453 -4.597387 -5.282186
Spine -19.060467 -3.356360 5.427462
Head 34.908248 -11.381013 -0.380386
LeftShoulder -15.933657 49.401976 18.511977
LeftArm 54.881914 6.464846 -75.450001
LeftForeArm 87.603097 -0.000000 5.410936
LeftHand -15.599917 -0.000000 63.025909
LeftHandThumb1 -26.253704 0.000000 33.147579
RightShoulder -15.661061 -52.368838 -10.067828
RightArm 50.998584 14.211989 91.649695
RightForeArm 19.980289 -0.000000 36.752455
RightHand 10.143378 0.000000 -22.407937
RightHandThumb1 -24.326973 -0.000000 -32.862282
LeftUpLeg -43.707153 4.841223 3.158473
LeftLeg 14.812717 -0.000000 -0.000000
LeftFoot -8.323845 8.977684 2.060234
LeftToeBase -1.335031 -0.000000 0.000000
RightUpLeg -52.356849 -0.953681 1.315320
RightLeg 25.590874 -0.000000 -0.000000
RightFoot -6.839311 -7.167355 4.990582
RightToeBase 6.542768 -0.000000 -0.000000
944
root 1.702365 32.676290 0.413722 39.948783 -4.543008 -5.180181
Spine -19.132025 -3.406832 5.369510
Head 34.926980 -11.325348 -0.493633
LeftShoulder -15.969534 49.326874 18.539845
LeftArm 54.945637 5.895511 -75.499719
LeftForeArm 87.934846 -0.000000 5.960166
LeftHand -15.987909 -0.000000 63.197674
LeftHandThumb1 -26.253704 0.000000 33.147579
RightShoulder -15.752911 -52.407159 -10.029009
RightArm 50.876295 14.305029 91.766799
RightForeArm 19.833566 -0.000000 36.804450
RightHand 10.092262 -0.000000 -22.242340
RightHandThumb1 -24.326973 -0.000000 -32.862282
LeftUpLeg -43.730268 4.875930 2.997283
LeftLeg 14.603421 -0.000000 -0.000000
LeftFoot -8.211605 8.807010 2.179789
LeftToeBase -1.218870 -0.000000 0.000000
RightUpLeg -52.217357 -0.819837 1.315485
RightLeg 25.595641 -0.000000 -0.000000
RightFoot -7.238960 -7.067799 5.008035
RightToeBase 6.436462 -0.000000 -0.000000
